<svg width="500" height="200" viewBox="0 0 500 200" fill="none" xmlns="http://www.w3.org/2000/svg">
<g clip-path="url(#clip0_1_2)">
<rect width="500" height="200" fill="white"/>
<rect x="32" y="-1" width="6" height="200" fill="url(#paint0_linear_1_2)"/>
<rect x="461" width="6" height="200" fill="url(#paint1_linear_1_2)"/>
<rect y="41" width="5.99998" height="500" transform="rotate(-90 0 41)" fill="url(#paint2_linear_1_2)"/>
<rect y="165" width="5.99998" height="500" transform="rotate(-90 0 165)" fill="url(#paint3_linear_1_2)"/>
<rect x="35" y="38" width="429" height="124" stroke="black" stroke-width="6"/>
<path d="M393.781 86.6562C399.656 86.6562 404.062 87.9688 407 90.5938C409.938 93.2188 411.406 97.1094 411.406 102.266V120.922C411.406 123.391 412.438 124.625 414.5 124.625H416.141C417.203 124.625 417.953 124.875 418.391 125.375C418.859 125.844 419.094 126.656 419.094 127.812C419.094 128.969 418.859 129.797 418.391 130.297C417.953 130.766 417.203 131 416.141 131H413.141C411.109 131 409.359 130.5 407.891 129.5C406.453 128.469 405.516 126.969 405.078 125C402.516 127.25 399.734 128.984 396.734 130.203C393.766 131.422 390.609 132.031 387.266 132.031C384.109 132.031 381.312 131.5 378.875 130.438C376.469 129.344 374.578 127.766 373.203 125.703C371.828 123.641 371.141 121.188 371.141 118.344C371.141 113.406 372.906 109.766 376.438 107.422C379.969 105.047 384.531 103.859 390.125 103.859C395.094 103.859 399.844 104.656 404.375 106.25V102.266C404.375 99.2344 403.516 97.0156 401.797 95.6094C400.109 94.1719 397.375 93.4531 393.594 93.4531C391.25 93.4531 388.812 93.7812 386.281 94.4375C383.75 95.0938 381.344 96 379.062 97.1562C378.531 97.4375 378.047 97.5781 377.609 97.5781C376.578 97.5781 375.719 96.8281 375.031 95.3281C374.688 94.5781 374.516 93.9531 374.516 93.4531C374.516 92.3594 375.094 91.5156 376.25 90.9219C378.875 89.5469 381.688 88.5 384.688 87.7812C387.719 87.0312 390.75 86.6562 393.781 86.6562ZM390.172 110.469C386.578 110.469 383.734 111.094 381.641 112.344C379.578 113.562 378.547 115.516 378.547 118.203C378.547 120.484 379.328 122.266 380.891 123.547C382.484 124.797 384.703 125.422 387.547 125.422C393.766 125.422 399.375 122.844 404.375 117.688V112.578C402.25 111.891 399.969 111.375 397.531 111.031C395.094 110.656 392.641 110.469 390.172 110.469Z" fill="black"/>
<path d="M346.625 87.6875C347.688 87.6875 348.438 87.9375 348.875 88.4375C349.344 88.9062 349.578 89.7188 349.578 90.875V133.672C349.578 139.172 348.344 143.297 345.875 146.047C343.438 148.828 339.562 150.219 334.25 150.219C331.656 150.219 328.859 149.719 325.859 148.719C322.859 147.75 320.141 146.5 317.703 144.969C316.672 144.344 316.156 143.531 316.156 142.531C316.156 141.938 316.359 141.234 316.766 140.422C317.516 138.984 318.422 138.266 319.484 138.266C320.016 138.266 320.5 138.422 320.938 138.734C323.094 140.141 325.328 141.266 327.641 142.109C329.953 142.953 332.156 143.375 334.25 143.375C337.312 143.375 339.453 142.547 340.672 140.891C341.922 139.234 342.547 136.625 342.547 133.062V94.0625H322.719C321.656 94.0625 320.891 93.8281 320.422 93.3594C319.984 92.8594 319.766 92.0312 319.766 90.875C319.766 89.7188 319.984 88.9062 320.422 88.4375C320.891 87.9375 321.656 87.6875 322.719 87.6875H346.625ZM345.125 67.1094C346.844 67.1094 348.016 67.3438 348.641 67.8125C349.266 68.25 349.578 69.0312 349.578 70.1562V76.25C349.578 77.375 349.266 78.1719 348.641 78.6406C348.016 79.0781 346.844 79.2969 345.125 79.2969C343.406 79.2969 342.234 79.0781 341.609 78.6406C340.984 78.1719 340.672 77.375 340.672 76.25V70.1562C340.672 69.0312 340.984 68.25 341.609 67.8125C342.234 67.3438 343.406 67.1094 345.125 67.1094Z" fill="black"/>
<path d="M280.156 87.6875C281.219 87.6875 281.969 87.9375 282.406 88.4375C282.875 88.9062 283.109 89.7188 283.109 90.875V124.625H298.156C299.219 124.625 299.969 124.875 300.406 125.375C300.875 125.844 301.109 126.656 301.109 127.812C301.109 128.969 300.875 129.797 300.406 130.297C299.969 130.766 299.219 131 298.156 131H261.406C260.344 131 259.578 130.766 259.109 130.297C258.672 129.797 258.453 128.969 258.453 127.812C258.453 126.656 258.672 125.844 259.109 125.375C259.578 124.875 260.344 124.625 261.406 124.625H276.078V94.0625H264.219C263.156 94.0625 262.391 93.8281 261.922 93.3594C261.484 92.8594 261.266 92.0312 261.266 90.875C261.266 89.7188 261.484 88.9062 261.922 88.4375C262.391 87.9375 263.156 87.6875 264.219 87.6875H280.156ZM278.656 67.1094C280.375 67.1094 281.547 67.3438 282.172 67.8125C282.797 68.25 283.109 69.0312 283.109 70.1562V76.25C283.109 77.375 282.797 78.1719 282.172 78.6406C281.547 79.0781 280.375 79.2969 278.656 79.2969C276.938 79.2969 275.766 79.0781 275.141 78.6406C274.516 78.1719 274.203 77.375 274.203 76.25V70.1562C274.203 69.0312 274.516 68.25 275.141 67.8125C275.766 67.3438 276.938 67.1094 278.656 67.1094Z" fill="black"/>
<path d="M222.125 69.5C223.188 69.5 223.938 69.75 224.375 70.25C224.844 70.7188 225.078 71.5312 225.078 72.6875V124.625H240.125C241.188 124.625 241.938 124.875 242.375 125.375C242.844 125.844 243.078 126.656 243.078 127.812C243.078 128.969 242.844 129.797 242.375 130.297C241.938 130.766 241.188 131 240.125 131H203.375C202.312 131 201.547 130.766 201.078 130.297C200.641 129.797 200.422 128.969 200.422 127.812C200.422 126.656 200.641 125.844 201.078 125.375C201.547 124.875 202.312 124.625 203.375 124.625H218.047V75.875H205.25C204.188 75.875 203.422 75.6406 202.953 75.1719C202.516 74.6719 202.297 73.8438 202.297 72.6875C202.297 71.5312 202.516 70.7188 202.953 70.25C203.422 69.75 204.188 69.5 205.25 69.5H222.125Z" fill="black"/>
<path d="M163.766 86.6562C168.297 86.6562 172.156 87.5781 175.344 89.4219C178.562 91.2344 181.031 93.7656 182.75 97.0156C184.469 100.234 185.453 103.953 185.703 108.172C185.703 109.234 185.469 109.984 185 110.422C184.562 110.859 183.812 111.078 182.75 111.078H148.812C149.031 115.734 150.406 119.266 152.938 121.672C155.5 124.047 159.109 125.234 163.766 125.234C166.641 125.234 169.484 124.875 172.297 124.156C175.109 123.406 177.578 122.422 179.703 121.203C180.234 120.922 180.719 120.781 181.156 120.781C182.25 120.781 183.141 121.609 183.828 123.266C184.109 123.922 184.25 124.516 184.25 125.047C184.25 126.297 183.562 127.266 182.188 127.953C179.781 129.172 176.938 130.156 173.656 130.906C170.375 131.656 167.078 132.031 163.766 132.031C159.047 132.031 155.016 131.125 151.672 129.312C148.328 127.5 145.781 124.891 144.031 121.484C142.281 118.078 141.406 114.031 141.406 109.344C141.406 104.875 142.359 100.922 144.266 97.4844C146.172 94.0469 148.812 91.3906 152.188 89.5156C155.562 87.6094 159.422 86.6562 163.766 86.6562ZM163.766 93.4531C159.922 93.4531 156.734 94.4375 154.203 96.4062C151.703 98.3438 150.062 101.047 149.281 104.516H177.922C177.266 100.922 175.75 98.1875 173.375 96.3125C171.031 94.4062 167.828 93.4531 163.766 93.4531Z" fill="black"/>
<path d="M114.453 52.625C115.016 52.2188 115.594 52.0156 116.188 52.0156C117.25 52.0156 118.297 52.6562 119.328 53.9375C120.266 55.1562 120.734 56.2188 120.734 57.125C120.734 57.9375 120.391 58.5469 119.703 58.9531L102.172 69.2188C101.609 69.5312 101.109 69.6875 100.672 69.6875C99.9219 69.6875 99.2031 69.2969 98.5156 68.5156C97.7656 67.6719 97.3906 66.8594 97.3906 66.0781C97.3906 65.4844 97.6406 65 98.1406 64.625L114.453 52.625ZM123.828 74.3281C125.109 74.3281 126.016 74.5625 126.547 75.0312C127.078 75.5 127.344 76.2812 127.344 77.375V92.8438C127.344 93.9375 127.078 94.7188 126.547 95.1875C126.016 95.6562 125.109 95.8906 123.828 95.8906C122.547 95.8906 121.641 95.6562 121.109 95.1875C120.578 94.7188 120.312 93.9375 120.312 92.8438C120.312 90.7188 119.828 88.7812 118.859 87.0312C117.922 85.2812 116.469 83.8906 114.5 82.8594C112.531 81.7969 110.094 81.2656 107.188 81.2656C103.812 81.2656 100.812 82.1562 98.1875 83.9375C95.5938 85.7188 93.5625 88.2656 92.0938 91.5781C90.6562 94.8906 89.9375 98.7656 89.9375 103.203C89.9375 107.641 90.625 111.516 92 114.828C93.375 118.109 95.3281 120.641 97.8594 122.422C100.391 124.203 103.344 125.094 106.719 125.094C109.812 125.094 112.766 124.641 115.578 123.734C118.391 122.828 120.922 121.516 123.172 119.797C123.703 119.359 124.281 119.141 124.906 119.141C125.844 119.141 126.672 119.75 127.391 120.969C127.953 121.906 128.234 122.734 128.234 123.453C128.234 124.391 127.75 125.203 126.781 125.891C123.875 127.922 120.703 129.453 117.266 130.484C113.859 131.516 110.344 132.031 106.719 132.031C101.844 132.031 97.5781 130.844 93.9219 128.469C90.2969 126.062 87.4844 122.688 85.4844 118.344C83.5156 114 82.5312 108.953 82.5312 103.203C82.5312 97.4844 83.5469 92.4531 85.5781 88.1094C87.6094 83.7344 90.4531 80.3438 94.1094 77.9375C97.7969 75.5312 102 74.3281 106.719 74.3281C109.656 74.3281 112.266 74.8281 114.547 75.8281C116.828 76.8281 118.75 78.25 120.312 80.0938V77.375C120.312 76.2812 120.578 75.5 121.109 75.0312C121.641 74.5625 122.547 74.3281 123.828 74.3281Z" fill="black"/>
</g>
<defs>
<linearGradient id="paint0_linear_1_2" x1="35" y1="-1" x2="35" y2="199" gradientUnits="userSpaceOnUse">
<stop stop-color="#C9C9C9" stop-opacity="0"/>
<stop offset="0.114583" stop-color="#C9C9C9"/>
<stop offset="0.880208" stop-color="#C9C9C9"/>
<stop offset="1" stop-color="#C9C9C9" stop-opacity="0"/>
</linearGradient>
<linearGradient id="paint1_linear_1_2" x1="464" y1="0" x2="464" y2="200" gradientUnits="userSpaceOnUse">
<stop stop-color="#C9C9C9" stop-opacity="0"/>
<stop offset="0.114583" stop-color="#C9C9C9"/>
<stop offset="0.880208" stop-color="#C9C9C9"/>
<stop offset="1" stop-color="#C9C9C9" stop-opacity="0"/>
</linearGradient>
<linearGradient id="paint2_linear_1_2" x1="2.99999" y1="41" x2="2.99999" y2="541" gradientUnits="userSpaceOnUse">
<stop stop-color="#D9D9D9" stop-opacity="0"/>
<stop offset="0.058845" stop-color="#D9D9D9"/>
<stop offset="0.936988" stop-color="#D9D9D9"/>
<stop offset="1" stop-color="#D9D9D9" stop-opacity="0"/>
</linearGradient>
<linearGradient id="paint3_linear_1_2" x1="2.99999" y1="165" x2="2.99999" y2="665" gradientUnits="userSpaceOnUse">
<stop stop-color="#D9D9D9" stop-opacity="0"/>
<stop offset="0.0628065" stop-color="#D9D9D9"/>
<stop offset="0.939629" stop-color="#D9D9D9"/>
<stop offset="1" stop-color="#D9D9D9" stop-opacity="0"/>
</linearGradient>
<clipPath id="clip0_1_2">
<rect width="500" height="200" fill="white"/>
</clipPath>
</defs>
</svg>
